<?xml version="1.0" encoding="UTF-8"?>
<svg xmlns="http://www.w3.org/2000/svg" viewBox="0 0 419.61 104.61">
  <defs>
    <style>.cls-1{fill:#a435f0;}</style>
  </defs>
  <g id="Layer_2" data-name="Layer 2">
    <g id="Layer_1-2" data-name="Layer 1">
      <path class="cls-1" d="M33.86,104.6h0Z"></path>
      <path class="cls-1" d="M80,63.94,68.43,80.85,60.5,91.77l-2.64,3.62L54.5,100l-3.33,4.59H33.86c-.32,0-.64,0-.94,0q-15.1-.52-23.74-9.18Q0,86.18,0,69.1V27.31H17.82V68.43Q17.82,89.3,35,89.29q8.35,0,12.75-5.05t4.4-15.81V27.31"></path>
      <polygon class="cls-1" points="92.13 50.45 74.22 27.31 108.25 27.31 92.13 50.45"></polygon>
      <polygon class="cls-1" points="110.06 104.29 72.66 104.29 90.39 77.83 110.06 104.29"></polygon>
      <path class="cls-1" d="M33.86,104.6h-1l0,0C33.22,104.6,33.54,104.6,33.86,104.6Z"></path>
      <path d="M168.73,28.15V37.3a28.7,28.7,0,0,0-10.37-7.45,33.2,33.2,0,0,0-13.13-2.54,38.3,38.3,0,0,0-19.17,4.78c-.81.46-1.61.95-2.37,1.47a33.75,33.75,0,0,0-10.83,12,36.41,36.41,0,0,0-3,7.12,45.28,45.28,0,0,0-1.8,13.07,49.52,49.52,0,0,0,.34,5.93A39.26,39.26,0,0,0,112.86,86a33.45,33.45,0,0,0,13.2,13.5,34,34,0,0,0,3.78,1.87,39.59,39.59,0,0,0,15.39,2.93,35.11,35.11,0,0,0,13.82-2.67,26.74,26.74,0,0,0,10.51-8v9.72h16.36V28.15Zm-5.91,54.6a20.7,20.7,0,0,1-15.67,6.48,20.43,20.43,0,0,1-15.59-6.48c-4.1-4.3-6.13-10-6.13-17s2-12.7,6.13-17a20.52,20.52,0,0,1,15.59-6.46,20.79,20.79,0,0,1,15.67,6.46q6.19,6.5,6.19,17T162.82,82.75Z"></path>
      <path d="M257.4,0V46.88a32.25,32.25,0,0,0-12-12.65,33,33,0,0,0-17.24-4.54A36.12,36.12,0,0,0,210,34.29a32.86,32.86,0,0,0-12.72,12.92,38.4,38.4,0,0,0-4.6,18.91A37.93,37.93,0,0,0,197.25,85,33.49,33.49,0,0,0,210,97.88a35.76,35.76,0,0,0,18.15,4.67A33.73,33.73,0,0,0,245.58,98a30.86,30.86,0,0,0,12-12.92V102h6.73V0Zm-3.79,81.79A27.62,27.62,0,0,1,243.3,92.51a30.29,30.29,0,0,1-29.56,0,27.62,27.62,0,0,1-10.31-10.72,32,32,0,0,1-3.77-15.67,32,32,0,0,1,3.77-15.67,27.62,27.62,0,0,1,10.31-10.72,30.29,30.29,0,0,1,29.56,0,27.62,27.62,0,0,1,10.31,10.72,32,32,0,0,1,3.79,15.67A32,32,0,0,1,253.61,81.79Z"></path>
      <path d="M335.07,0V46.88a32.32,32.32,0,0,0-12-12.65,33,33,0,0,0-17.24-4.54,36.12,36.12,0,0,0-18.15,4.6,32.86,32.86,0,0,0-12.72,12.92,38.4,38.4,0,0,0-4.6,18.91A37.93,37.93,0,0,0,274.92,85a33.49,33.49,0,0,0,12.72,12.93,35.76,35.76,0,0,0,18.15,4.67A33.66,33.66,0,0,0,323.24,98a30.73,30.73,0,0,0,12-12.92V102h6.74V0Zm-3.79,81.79A27.62,27.62,0,0,1,321,92.51a30.29,30.29,0,0,1-29.56,0A27.62,27.62,0,0,1,281.1,81.79a32,32,0,0,1-3.77-15.67,32,32,0,0,1,3.77-15.67,27.62,27.62,0,0,1,10.31-10.72,30.29,30.29,0,0,1,29.56,0,27.62,27.62,0,0,1,10.31,10.72,32,32,0,0,1,3.79,15.67A32,32,0,0,1,331.28,81.79Z"></path>
      <path d="M412.73,30.24V46.88a32.29,32.29,0,0,0-12-12.65,33,33,0,0,0-17.25-4.54,36.08,36.08,0,0,0-18.14,4.6,32.86,32.86,0,0,0-12.72,12.92A38.4,38.4,0,0,0,348,66.12,37.93,37.93,0,0,0,352.59,85a33.49,33.49,0,0,0,12.72,12.93,35.73,35.73,0,0,0,18.14,4.67A33.67,33.67,0,0,0,400.91,98a30.79,30.79,0,0,0,12-12.92V102h6.74V30.24ZM409,81.79a27.62,27.62,0,0,1-10.31,10.72,30.29,30.29,0,0,1-29.56,0,27.62,27.62,0,0,1-10.31-10.72A32,32,0,0,1,355,66.12a32,32,0,0,1,3.77-15.67,27.62,27.62,0,0,1,10.31-10.72,30.29,30.29,0,0,1,29.56,0A27.62,27.62,0,0,1,409,50.45a32,32,0,0,1,3.78,15.67A32,32,0,0,1,409,81.79Z"></path>
    </g>
  </g>
</svg>
