<?xml version="1.0" encoding="UTF-8"?>
<!-- Generator: Adobe Illustrator 26.3.1, SVG Export Plug-In . SVG Version: 6.00 Build 0)  -->
<svg xmlns="http://www.w3.org/2000/svg" xmlns:xlink="http://www.w3.org/1999/xlink" version="1.1" id="Layer_1" x="0px" y="0px" viewBox="0 0 419.6 104.6" style="enable-background:new 0 0 419.6 104.6;" xml:space="preserve">
<style type="text/css">
	.st0{fill:#A435F0;}
	.st1{fill:#FFFFFF;}
</style>
<g id="Layer_2_00000139972602502636679880000009079867392832614067_">
	<g id="Layer_1-2">
		<path class="st0" d="M33.9,104.6L33.9,104.6z"></path>
		<path class="st0" d="M80,63.9L68.4,80.8l-7.9,10.9l-2.6,3.6l-3.4,4.6l-3.3,4.6H33.9c-0.3,0-0.6,0-0.9,0c-10.1-0.3-18-3.4-23.7-9.2    C3.1,89.3,0,80.5,0,69.1V27.3h17.8v41.1c0,13.9,5.7,20.9,17.2,20.9c5.6,0,9.8-1.7,12.8-5.1s4.4-8.6,4.4-15.8V27.3"></path>
		<polygon class="st0" points="92.1,50.5 74.2,27.3 108.2,27.3   "></polygon>
		<polygon class="st0" points="110.1,104.3 72.7,104.3 90.4,77.8   "></polygon>
		<path class="st0" d="M33.9,104.6h-1l0,0C33.2,104.6,33.5,104.6,33.9,104.6z"></path>
		<path class="st1" d="M168.7,28.1v9.1c-2.9-3.2-6.4-5.8-10.4-7.5c-4.2-1.7-8.6-2.6-13.1-2.5c-6.7-0.1-13.3,1.5-19.2,4.8    c-0.8,0.5-1.6,1-2.4,1.5c-4.5,3.1-8.2,7.2-10.8,12c-1.2,2.3-2.3,4.6-3,7.1c-1.2,4.2-1.8,8.6-1.8,13.1c0,2,0.1,4,0.3,5.9    c0.6,5,2.1,9.9,4.5,14.3c3,5.7,7.6,10.4,13.2,13.5c1.2,0.7,2.5,1.3,3.8,1.9c4.9,2,10.1,3,15.4,2.9c4.7,0.1,9.4-0.9,13.8-2.7    c4.1-1.7,7.7-4.5,10.5-8v9.7h16.4V28.1H168.7z M162.8,82.8c-4.1,4.3-9.8,6.7-15.7,6.5c-5.9,0.2-11.6-2.2-15.6-6.5    c-4.1-4.3-6.1-10-6.1-17s2-12.7,6.1-17c4-4.3,9.7-6.6,15.6-6.5c5.9-0.2,11.6,2.2,15.7,6.5c4.1,4.3,6.2,10,6.2,17    S166.9,78.4,162.8,82.8L162.8,82.8z"></path>
		<path class="st1" d="M257.4,0v46.9c-2.8-5.2-6.9-9.6-12-12.6c-5.2-3.1-11.2-4.6-17.2-4.5c-6.4-0.1-12.6,1.5-18.2,4.6    c-5.4,3-9.8,7.5-12.7,12.9c-3.1,5.8-4.7,12.3-4.6,18.9c-0.1,6.6,1.4,13.1,4.6,18.9c3,5.4,7.4,9.8,12.8,12.9    c5.5,3.1,11.8,4.8,18.1,4.7c6.1,0.1,12.1-1.5,17.4-4.5c5.2-3,9.3-7.5,12-12.9V102h6.7V0H257.4z M253.6,81.8    c-2.4,4.4-6,8.2-10.3,10.7c-9.2,5.1-20.4,5.1-29.6,0c-4.4-2.6-7.9-6.3-10.3-10.7c-2.6-4.8-3.9-10.2-3.8-15.7    c-0.1-5.5,1.2-10.9,3.8-15.7c2.4-4.4,6-8.2,10.3-10.7c9.2-5.1,20.4-5.1,29.6,0c4.4,2.6,7.9,6.3,10.3,10.7    c2.6,4.8,3.9,10.2,3.8,15.7C257.5,71.6,256.2,77,253.6,81.8z"></path>
		<path class="st1" d="M335.1,0v46.9c-2.8-5.2-6.9-9.6-12-12.6c-5.2-3.1-11.2-4.6-17.2-4.5c-6.3-0.1-12.6,1.5-18.1,4.6    c-5.4,3-9.8,7.5-12.7,12.9c-3.1,5.8-4.7,12.3-4.6,18.9c-0.1,6.6,1.4,13.1,4.6,18.9c3,5.4,7.4,9.9,12.7,12.9    c5.5,3.1,11.8,4.8,18.1,4.7c6.1,0.1,12.2-1.5,17.4-4.6c5.2-3,9.3-7.5,12-12.9V102h6.7V0H335.1z M331.3,81.8    c-2.4,4.4-5.9,8.2-10.3,10.7c-9.2,5.1-20.4,5.1-29.6,0c-4.4-2.6-7.9-6.3-10.3-10.7c-2.6-4.8-3.9-10.2-3.8-15.7    c-0.1-5.5,1.2-10.9,3.8-15.7c2.4-4.4,6-8.2,10.3-10.7c9.2-5.1,20.4-5.1,29.6,0c4.4,2.6,7.9,6.3,10.3,10.7    c2.6,4.8,3.9,10.2,3.8,15.7C335.2,71.6,333.9,77,331.3,81.8z"></path>
		<path class="st1" d="M412.7,30.2v16.6c-2.8-5.2-6.9-9.6-12-12.6c-5.2-3.1-11.2-4.6-17.2-4.5c-6.3-0.1-12.6,1.5-18.1,4.6    c-5.4,3-9.8,7.5-12.7,12.9c-3.1,5.8-4.7,12.3-4.6,18.9c-0.1,6.6,1.4,13.1,4.6,18.9c3,5.4,7.4,9.9,12.7,12.9    c5.5,3.1,11.8,4.8,18.1,4.7c6.1,0.1,12.2-1.5,17.5-4.6c5.2-3,9.3-7.5,12-12.9V102h6.7V30.2H412.7z M409,81.8    c-2.4,4.4-6,8.2-10.3,10.7c-9.2,5.1-20.4,5.1-29.6,0c-4.4-2.6-7.9-6.3-10.3-10.7c-2.6-4.8-3.9-10.2-3.8-15.7    c-0.1-5.5,1.2-10.9,3.8-15.7c2.4-4.4,6-8.2,10.3-10.7c9.2-5.1,20.4-5.1,29.6,0c4.4,2.6,8,6.3,10.4,10.7c2.6,4.8,3.9,10.2,3.8,15.7    C412.9,71.6,411.6,77,409,81.8z"></path>
	</g>
</g>
</svg>
